<?xml version="1.0" encoding="UTF-8"?>
<svg id="Layer_2" data-name="Layer 2" xmlns="http://www.w3.org/2000/svg" viewBox="0 0 1390.82 246.03">
  <defs>
    <style>
      .cls-1 {
        fill: #151515;
      }
    </style>
  </defs>
  <g id="Layer_1-2" data-name="Layer 1">
    <path class="cls-1" d="M1386.92,74.8h-293.79c-45.63,0-84.61,28.23-100.57,68.16-1.57,3.95-7.45,2.78-7.48-1.47v104.54h405.74V78.68c0-2.13-1.78-3.88-3.9-3.88ZM398.19,142.96c-15.91-39.93-54.93-68.16-100.57-68.16H139.15c-2.17,0-3.9-1.75-3.9-3.9V38.09c0-2.17-1.73-3.9-3.9-3.9H3.9c-2.17,0-3.9,1.73-3.9,3.9V206.21c0,.68,.19,1.33,.51,1.89v37.92H405.69v-104.54c0,4.28-5.91,5.44-7.5,1.47ZM984.85,3.9c0-2.15-1.75-3.9-3.88-3.9h-127.56c-2.13,0-3.88,1.73-3.88,3.9l.05,103.91c0,2.15,1.75,3.9,3.9,3.9h127.53c2.13,0,3.9-1.73,3.9-3.9l-.07-103.91Zm.05,123.77c0-2.15-1.78-3.9-3.9-3.9h-127.56c-2.13,0-3.88,1.73-3.88,3.9l-.19,13.81v104.54h135.71v-104.54l-.19-13.81ZM541.17,3.9c0-2.15-1.75-3.9-3.88-3.9h-127.56c-2.13,0-3.88,1.73-3.88,3.9l.05,103.91c0,2.15,1.75,3.9,3.9,3.9h127.53c2.13,0,3.9-1.73,3.9-3.9l-.07-103.91Zm296.12,0c0-2.15-1.75-3.9-3.88-3.9h-127.56c-2.13,0-3.88,1.73-3.88,3.9l-.21,13.81V246.03h135.74V17.71l-.21-13.81Zm-147.58,0c0-2.15-1.75-3.9-3.88-3.9h-127.56c-2.13,0-3.9,1.73-3.9,3.9l-.19,13.81V246.03h135.71V17.71l-.19-13.81Zm-148.49,123.77c0-2.15-1.78-3.9-3.9-3.9h-127.56c-2.13,0-3.88,1.73-3.88,3.9l-.19,13.81v104.54h135.71v-104.54l-.19-13.81Z"/>
  </g>
</svg>