<?xml version="1.0" standalone="no"?>
<!DOCTYPE svg PUBLIC "-//W3C//DTD SVG 1.1//EN" "http://www.w3.org/Graphics/SVG/1.1/DTD/svg11.dtd"><svg xmlns="http://www.w3.org/2000/svg" style="background-color:#FFF" width="1500" height="1114.06"><path stroke="black" fill="none" stroke-width="1" d="M697.04, 603.05L697.04, 616.79L675.86, 616.79L675.86, 498.78L697.68, 498.78L697.68, 545.66L699.53, 542.48L701.71, 539.61L704.26, 537.1L707.24, 534.97L710.67, 533.26L714.61, 532L719.11, 531.22L721.57, 531.02L724.19, 530.95L728.47, 531.18L732.61, 531.85L736.61, 532.94L740.44, 534.44L744.07, 536.3L747.5, 538.52L750.69, 541.07L753.63, 543.92L756.31, 547.06L758.69, 550.46L760.76, 554.1L762.5, 557.95L763.89, 562L764.9, 566.22L765.53, 570.59L765.74, 575.08L765.53, 579.57L764.9, 583.92L763.89, 588.13L762.5, 592.16L760.76, 595.99L758.69, 599.6L756.31, 602.97L753.63, 606.08L750.69, 608.9L747.5, 611.42L744.07, 613.61L740.44, 615.45L736.61, 616.93L732.61, 618L728.47, 618.66L724.19, 618.89L721.46, 618.82L718.89, 618.6L716.49, 618.24L714.24, 617.76L710.19, 616.39L706.67, 614.54L703.65, 612.25L701.07, 609.55L698.88, 606.47L697.03, 603.05L697.04, 603.05"/><path stroke="black" fill="none" stroke-width="1" d="M720.64, 599.17L723.19, 599.04L725.63, 598.65L727.95, 598.03L730.14, 597.18L732.2, 596.12L734.11, 594.86L735.88, 593.43L737.49, 591.83L738.94, 590.09L740.22, 588.2L741.32, 586.2L742.24, 584.1L742.96, 581.9L743.49, 579.63L743.81, 577.3L743.92, 574.92L743.81, 572.54L743.49, 570.21L742.96, 567.94L742.24, 565.74L741.32, 563.64L740.22, 561.64L738.94, 559.75L737.49, 558.01L735.88, 556.41L734.11, 554.98L732.2, 553.72L730.14, 552.66L727.95, 551.81L725.63, 551.19L723.19, 550.8L720.64, 550.67L718.08, 550.8L715.64, 551.18L713.3, 551.8L711.09, 552.64L709.01, 553.69L707.06, 554.94L705.27, 556.37L703.63, 557.97L702.15, 559.72L700.84, 561.6L699.71, 563.62L698.77, 565.74L698.03, 567.97L697.48, 570.27L697.15, 572.65L697.04, 575.08L697.15, 577.51L697.46, 579.87L697.98, 582.16L698.7, 584.37L699.62, 586.47L700.71, 588.45L701.99, 590.31L703.44, 592.03L705.07, 593.6L706.85, 595L708.79, 596.22L710.88, 597.25L713.12, 598.07L715.49, 598.67L718, 599.04L720.64, 599.17"/><path stroke="black" fill="none" stroke-width="1" d="M786.28, 500.07L789.02, 500.33L791.53, 501.09L793.76, 502.28L795.68, 503.85L797.24, 505.75L798.4, 507.91L799.13, 510.3L799.38, 512.84L799.13, 515.39L798.4, 517.79L797.24, 519.99L795.68, 521.91L793.76, 523.51L791.53, 524.73L789.02, 525.5L786.28, 525.77L783.54, 525.51L781.03, 524.75L778.8, 523.55L776.89, 521.97L775.33, 520.06L774.17, 517.86L773.44, 515.44L773.19, 512.84L773.45, 510.25L774.19, 507.85L775.37, 505.67L776.95, 503.79L778.87, 502.24L781.1, 501.07L783.58, 500.33L786.28, 500.07"/><path stroke="black" fill="none" stroke-width="1" d="M775.45, 532.73L797.27, 532.73L797.27, 616.79L775.45, 616.79L775.45, 532.73"/><path stroke="black" fill="none" stroke-width="1" d="M810.2, 498.78L832.02, 498.78L832.02, 616.79L810.2, 616.79L810.2, 498.78"/><path stroke="black" fill="none" stroke-width="1" d="M844.96, 498.78L866.78, 498.78L866.78, 616.79L844.96, 616.79L844.96, 498.78"/><path stroke="black" fill="none" stroke-width="1" d="M890.55, 500.07L893.29, 500.33L895.8, 501.09L898.03, 502.28L899.95, 503.85L901.5, 505.75L902.66, 507.91L903.39, 510.3L903.64, 512.84L903.39, 515.39L902.66, 517.79L901.5, 519.99L899.94, 521.91L898.03, 523.51L895.8, 524.73L893.29, 525.5L890.55, 525.77L887.81, 525.51L885.3, 524.75L883.07, 523.55L881.16, 521.97L879.6, 520.06L878.44, 517.86L877.71, 515.44L877.46, 512.84L877.72, 510.25L878.46, 507.85L879.64, 505.67L881.22, 503.79L883.14, 502.24L885.37, 501.07L887.85, 500.33L890.55, 500.07"/><path stroke="black" fill="none" stroke-width="1" d="M879.72, 532.73L901.54, 532.73L901.54, 616.79L879.72, 616.79L879.72, 532.73"/><path stroke="black" fill="none" stroke-width="1" d="M911.24, 574.92L911.45, 570.43L912.07, 566.05L913.09, 561.83L914.49, 557.77L916.25, 553.9L918.35, 550.25L920.78, 546.83L923.53, 543.68L926.57, 540.81L929.89, 538.24L933.47, 536.01L937.29, 534.13L941.35, 532.63L945.62, 531.53L950.09, 530.85L954.73, 530.62L959.37, 530.85L963.8, 531.53L968.03, 532.63L972.04, 534.13L975.8, 536.01L979.32, 538.24L982.56, 540.81L985.53, 543.68L988.2, 546.83L990.56, 550.25L992.59, 553.9L994.29, 557.77L995.63, 561.83L996.61, 566.05L997.21, 570.43L997.41, 574.92L997.27, 578.68L996.76, 582.68L933.87, 582.68L935.01, 586.23L936.61, 589.47L938.64, 592.33L941.08, 594.78L943.93, 596.77L947.17, 598.25L950.77, 599.17L954.72, 599.49L958.14, 599.27L961.34, 598.63L964.31, 597.61L967.05, 596.26L969.52, 594.59L971.72, 592.67L973.64, 590.51L975.25, 588.17L992.22, 600.94L989.34, 604.73L985.84, 608.18L981.76, 611.23L977.17, 613.85L972.11, 615.97L966.64, 617.55L960.83, 618.54L954.71, 618.88L949.93, 618.65L945.37, 617.99L941.03, 616.9L936.93, 615.42L933.09, 613.57L929.51, 611.36L926.21, 608.83L923.2, 605.99L920.5, 602.86L918.12, 599.48L916.06, 595.85L914.35, 592.01L913, 587.97L912.02, 583.76L911.42, 579.4L911.22, 574.91L911.24, 574.92"/><path stroke="black" fill="none" stroke-width="1" d="M975.42, 566.35L933.87, 566.35L935.01, 562.74L936.6, 559.47L938.62, 556.58L941.04, 554.11L943.85, 552.11L947.03, 550.62L950.55, 549.7L954.4, 549.38L958.27, 549.72L961.84, 550.71L965.1, 552.28L968, 554.35L970.51, 556.86L972.61, 559.74L974.26, 562.93L975.42, 566.35"/></svg>