<svg xmlns="http://www.w3.org/2000/svg" id="Layer_1" viewBox="675.86 498.78 321.55 120.11">
  <g>
    <path d="M697.04,603.05v13.74h-21.18v-118.01h21.82v46.88c4.53-8.89,12.12-14.71,26.51-14.71,23.12,0,41.55,19.88,41.55,44.13s-18.43,43.81-41.55,43.81c-15.03,0-22.63-6.31-27.16-15.84ZM720.64,599.17c13.9,0,23.28-11.48,23.28-24.25s-9.38-24.25-23.28-24.25-23.6,11.32-23.6,24.41,9.21,24.09,23.6,24.09Z" data-index="0" style="opacity: 1;"/>
    <path d="M786.28,500.07c7.6,0,13.1,5.82,13.1,12.77s-5.5,12.93-13.1,12.93-13.09-5.82-13.09-12.93,5.66-12.77,13.09-12.77ZM775.45,532.73h21.82v84.06h-21.82v-84.06Z" data-index="1" style="opacity: 1;"/>
    <path d="M810.2,498.78h21.82v118.01h-21.82v-118.01Z" data-index="2"/>
    <path d="M844.96,498.78h21.82v118.01h-21.82v-118.01Z" data-index="3"/>
    <path d="M890.55,500.07c7.6,0,13.09,5.82,13.09,12.77s-5.5,12.93-13.09,12.93-13.09-5.82-13.09-12.93,5.66-12.77,13.09-12.77ZM879.72,532.73h21.82v84.06h-21.82v-84.06Z" data-index="4" style="opacity: 1;"/>
    <path d="M911.24,574.92c0-24.25,18.27-44.3,43.49-44.3s42.68,20.05,42.68,44.3c0,2.43-.16,5.01-.65,7.76h-62.89c2.43,9.86,9.86,16.81,20.85,16.81,9.38,0,16.65-4.85,20.53-11.32l16.97,12.77c-6.79,10.51-20.85,17.94-37.51,17.94-26.03,0-43.49-19.72-43.49-43.97ZM975.42,566.35c-2.43-9.38-10.35-16.97-21.02-16.97s-18.11,6.95-20.53,16.97h41.55Z" data-index="5" style="opacity: 1;"/>
  </g>
  
</svg>